<svg width="203" height="80" viewBox="0 0 203 80" fill="none" xmlns="http://www.w3.org/2000/svg">
<g clip-path="url(#clip0_2914_8809)">
<path d="M14.878 15.0039H0.000557321C-0.0886523 27.2761 10.5616 27.3656 10.5616 27.3656H24.293C24.0323 15.8918 14.8711 15.0039 14.8711 15.0039H14.878Z" fill="#FFFFFF"/>
<path d="M190.676 65.0703V79.9924C202.911 80.0819 203 69.3996 203 69.3996V55.627C191.561 55.8885 190.676 65.0772 190.676 65.0772V65.0703Z" fill="#FFFFFF"/>
<path d="M162.595 30.6348C140.32 30.6348 139.27 52.075 139.27 52.075V65.5104C139.27 65.5104 139.449 67.5409 136.367 67.6304C133.286 67.7199 133.286 65.1594 133.286 65.1594V52.075C133.286 52.075 130.473 30.6348 108.548 30.6348C86.6228 30.6348 84.8455 52.075 84.8455 52.075V65.1181C84.8455 65.1181 84.9072 67.6304 81.8055 67.6304C78.7037 67.6304 78.6351 65.0493 78.6351 65.0493V52.5293C78.6351 50.1478 75.4647 30.6348 53.5466 30.6348C31.6285 30.6348 30.1737 51.8685 30.1737 51.8685V64.5193C30.1737 65.9096 29.7757 67.4996 27.0033 67.4996C24.231 67.4996 24.2927 64.5399 24.2927 64.5399V30.6348H12.1465V68.9519C12.1465 79.3726 22.6252 79.999 22.6252 79.999H32.0471C36.4458 79.999 38.827 76.9016 40.323 75.2222C41.0298 76.5437 47.7205 79.999 55.2004 79.999C62.6803 79.999 66.5575 76.9911 68.9319 75.3117C71.3062 79.5516 77.3862 79.999 77.3862 79.999C77.3862 79.999 79.4106 79.999 85.6621 79.999C91.9136 79.999 93.4988 77.5005 94.7272 75.1396C95.0771 76.3785 101.768 79.82 109.165 79.999C116.563 80.1779 120.701 77.0806 123.604 75.1396C125.978 78.76 131.612 79.999 131.612 79.999H140.505C150.099 79.999 151.595 70.2872 151.595 70.2872V53.6856C151.595 53.6856 152.295 42.9139 163.652 42.9139C175.009 42.9139 175.798 53.6856 175.798 53.6856V70.9066C175.798 78.8564 187.594 79.999 187.594 79.999V52.8046C187.594 51.1252 184.863 30.6416 162.595 30.6416V30.6348ZM54.5142 67.6579C47.7205 67.6579 42.2101 62.1309 42.2101 55.3169C42.2101 48.5028 47.7205 42.9758 54.5142 42.9758C61.3079 42.9758 66.8183 48.5028 66.8183 55.3169C66.8183 62.1309 61.3079 67.6579 54.5142 67.6579ZM108.754 67.6579C101.96 67.6579 96.4496 62.1309 96.4496 55.3169C96.4496 48.5028 101.96 42.9758 108.754 42.9758C115.547 42.9758 121.058 48.5028 121.058 55.3169C121.058 62.1309 115.547 67.6579 108.754 67.6579Z" fill="#FFFFFF"/>
<path d="M112.761 12.8789H110.764V0.861328H112.761V12.8858V12.8789Z" fill="#FFFFFF"/>
<path d="M120.598 12.8776C120.53 12.6435 120.468 12.4233 120.42 12.2099C120.372 11.9966 120.344 11.7832 120.324 11.5698C120.063 11.9828 119.699 12.3338 119.239 12.6298C118.793 12.912 118.292 13.0496 117.743 13.0496C116.817 13.0496 116.103 12.8087 115.602 12.3338C115.108 11.852 114.861 11.1981 114.861 10.3584C114.861 9.51871 115.204 8.82354 115.884 8.34173C116.563 7.85993 117.524 7.61215 118.759 7.61215H120.317V6.82749C120.317 6.35946 120.18 5.99466 119.912 5.72623C119.637 5.46468 119.246 5.32702 118.732 5.32702C118.498 5.32702 118.292 5.35455 118.107 5.4165C117.922 5.47156 117.764 5.55416 117.641 5.6574C117.51 5.76064 117.414 5.88454 117.345 6.03596C117.277 6.1805 117.243 6.33881 117.243 6.51088H115.314V6.4627C115.259 5.76064 115.575 5.1343 116.241 4.59055C116.906 4.0468 117.771 3.77148 118.848 3.77148C119.926 3.77148 120.722 4.03303 121.36 4.56302C121.998 5.093 122.314 5.85012 122.314 6.84126V10.8127C122.314 11.1775 122.341 11.5354 122.389 11.8727C122.437 12.2099 122.52 12.5403 122.629 12.8707H120.605L120.598 12.8776ZM118.141 11.4459C118.642 11.4459 119.095 11.322 119.5 11.0674C119.905 10.8058 120.173 10.5167 120.31 10.2001V8.8786H118.718C118.141 8.8786 117.689 9.02314 117.352 9.3191C117.023 9.60819 116.858 9.95233 116.858 10.3378C116.858 10.6819 116.968 10.9572 117.194 11.1568C117.414 11.3564 117.737 11.4528 118.148 11.4528L118.141 11.4459Z" fill="#FFFFFF"/>
<path d="M129.766 12.8776C129.698 12.6435 129.636 12.4233 129.588 12.2099C129.54 11.9966 129.512 11.7832 129.492 11.5698C129.231 11.9828 128.867 12.3338 128.407 12.6298C127.961 12.912 127.46 13.0496 126.911 13.0496C125.985 13.0496 125.271 12.8087 124.77 12.3338C124.276 11.852 124.029 11.1981 124.029 10.3584C124.029 9.51871 124.372 8.82354 125.052 8.34173C125.731 7.85993 126.692 7.61215 127.927 7.61215H129.485V6.82749C129.485 6.35946 129.348 5.99466 129.08 5.72623C128.805 5.46468 128.414 5.32702 127.9 5.32702C127.666 5.32702 127.46 5.35455 127.275 5.4165C127.09 5.47156 126.932 5.55416 126.809 5.6574C126.678 5.76064 126.582 5.88454 126.513 6.03596C126.445 6.1805 126.411 6.33881 126.411 6.51088H124.482V6.4627C124.427 5.76064 124.743 5.1343 125.409 4.59055C126.074 4.0468 126.939 3.77148 128.016 3.77148C129.094 3.77148 129.89 4.03303 130.528 4.56302C131.166 5.093 131.482 5.85012 131.482 6.84126V10.8127C131.482 11.1775 131.509 11.5354 131.557 11.8727C131.605 12.2099 131.688 12.5403 131.797 12.8707H129.773L129.766 12.8776ZM127.316 11.4459C127.817 11.4459 128.27 11.322 128.675 11.0674C129.08 10.8058 129.348 10.5167 129.485 10.2001V8.8786H127.893C127.316 8.8786 126.863 9.02314 126.527 9.3191C126.198 9.60819 126.033 9.95233 126.033 10.3378C126.033 10.6819 126.143 10.9572 126.369 11.1568C126.589 11.3564 126.911 11.4528 127.323 11.4528L127.316 11.4459Z" fill="#FFFFFF"/>
<path d="M135.385 3.94449L135.502 5.23159C135.797 4.77044 136.16 4.41252 136.6 4.15786C137.039 3.90319 137.533 3.7793 138.096 3.7793C138.555 3.7793 138.967 3.84813 139.331 3.99267C139.694 4.13033 140.003 4.3437 140.257 4.63278C140.511 4.92186 140.703 5.27977 140.84 5.72028C140.971 6.16078 141.039 6.677 141.039 7.26893V12.8854H139.043V7.28958C139.043 6.61505 138.905 6.14013 138.624 5.85793C138.343 5.57574 137.924 5.43119 137.361 5.43119C136.963 5.43119 136.62 5.52067 136.311 5.69274C136.003 5.86482 135.756 6.10572 135.557 6.40857V12.8923H133.553V3.94449H135.378H135.385Z" fill="#FFFFFF"/>
<path d="M156.323 8.89192L156.344 8.9401C156.364 10.1584 155.973 11.1495 155.157 11.9135C154.347 12.6706 153.256 13.0561 151.877 13.0561C150.497 13.0561 149.338 12.588 148.459 11.6451C147.588 10.7021 147.148 9.49073 147.148 8.01779V5.73267C147.148 4.26661 147.581 3.0621 148.439 2.11914C149.303 1.1693 150.429 0.6875 151.815 0.6875C153.201 0.6875 154.347 1.05918 155.157 1.80941C155.973 2.55965 156.371 3.55767 156.351 4.81724L156.33 4.86542H154.395C154.395 4.05324 154.175 3.42001 153.743 2.97262C153.311 2.52524 152.666 2.2981 151.808 2.2981C150.95 2.2981 150.339 2.6216 149.859 3.26859C149.379 3.92246 149.145 4.74153 149.145 5.71202V8.01779C149.145 9.00205 149.392 9.82111 149.88 10.475C150.374 11.122 151.039 11.4524 151.87 11.4524C152.7 11.4524 153.331 11.2321 153.757 10.7847C154.182 10.3442 154.395 9.71099 154.395 8.89192H156.316H156.323Z" fill="#FFFFFF"/>
<path d="M157.668 8.3289C157.668 7.0005 158.032 5.913 158.752 5.05952C159.486 4.20604 160.482 3.7793 161.737 3.7793C162.993 3.7793 164.016 4.20604 164.743 5.05952C165.47 5.90611 165.841 7.0005 165.841 8.3289V8.50097C165.841 9.84314 165.477 10.9375 164.743 11.7841C164.016 12.6238 163.021 13.0506 161.758 13.0506C160.495 13.0506 159.486 12.6238 158.752 11.7772C158.025 10.9306 157.668 9.83625 157.668 8.50097V8.3289ZM159.672 8.50097C159.672 9.36822 159.843 10.0772 160.18 10.6278C160.516 11.1715 161.044 11.4469 161.758 11.4469C162.472 11.4469 162.973 11.1715 163.322 10.6278C163.672 10.0772 163.851 9.36822 163.851 8.50097V8.3289C163.851 7.47542 163.672 6.77336 163.322 6.22273C162.979 5.66521 162.451 5.3899 161.744 5.3899C161.037 5.3899 160.53 5.66521 160.18 6.22273C159.836 6.78024 159.672 7.4823 159.672 8.3289V8.50097Z" fill="#FFFFFF"/>
<path d="M169.787 12.8784H167.797V10.9512H169.787V12.8784Z" fill="#FFFFFF"/>
<path d="M174.22 12.4588C174.22 12.8167 174.171 13.1471 174.082 13.4568C173.993 13.7597 173.863 14.0419 173.698 14.2897C173.533 14.5374 173.334 14.7646 173.108 14.9573C172.881 15.15 172.634 15.3152 172.367 15.446L171.475 14.8265C171.564 14.6889 171.66 14.5306 171.756 14.3516C171.845 14.1727 171.934 13.9799 172.01 13.7803C172.085 13.5807 172.14 13.3674 172.188 13.1471C172.229 12.9268 172.25 12.6997 172.25 12.4657V10.9102H174.22V12.4519V12.4588Z" fill="#FFFFFF"/>
<path d="M178.357 11.282H183.861V12.8858H176.354V0.861328H178.35V11.282H178.357Z" fill="#FFFFFF"/>
<path d="M187.711 1.77641V3.95141H189.31V5.43812H187.711V10.3732C187.711 10.7448 187.793 11.0064 187.951 11.1647C188.109 11.323 188.322 11.3987 188.583 11.3987C188.789 11.3987 188.994 11.3643 189.2 11.2886L189.413 12.7546C189.241 12.851 189.042 12.9198 188.802 12.9749C188.569 13.03 188.322 13.0506 188.068 13.0506C187.697 13.0506 187.368 12.9955 187.08 12.8923C186.792 12.7822 186.545 12.6239 186.339 12.4036C186.133 12.1834 185.982 11.908 185.872 11.5708C185.762 11.2335 185.714 10.8343 185.714 10.3663V5.43124H184.355V3.94453H185.714V1.76953H187.704L187.711 1.77641Z" fill="#FFFFFF"/>
<path d="M190.71 8.5348C190.71 7.11004 191.012 5.9606 191.623 5.09335C192.233 4.21922 193.084 3.77871 194.189 3.77871C194.67 3.77871 195.102 3.87508 195.486 4.07468C195.87 4.2674 196.2 4.5496 196.481 4.91439V0H198.478V12.8779H196.797L196.598 11.7698C196.31 12.1896 195.966 12.5062 195.568 12.7265C195.17 12.9467 194.704 13.05 194.169 13.05C193.077 13.05 192.227 12.6508 191.616 11.8524C191.005 11.0539 190.703 10.0077 190.703 8.70687V8.5348H190.71ZM192.714 8.71376C192.714 9.54659 192.872 10.2005 193.18 10.6891C193.503 11.1778 194.004 11.4256 194.683 11.4256C195.109 11.4256 195.472 11.3361 195.761 11.1503C196.049 10.9713 196.289 10.7098 196.474 10.3725V6.47681C196.289 6.14643 196.049 5.89177 195.754 5.70593C195.459 5.52009 195.109 5.43061 194.697 5.43061C194.011 5.43061 193.51 5.71969 193.194 6.29786C192.872 6.86914 192.707 7.61937 192.707 8.54168V8.71376H192.714Z" fill="#FFFFFF"/>
<path d="M202.828 12.8784H200.838V10.9512H202.828V12.8784Z" fill="#FFFFFF"/>
</g>
<defs>
<clipPath id="clip0_2914_8809">
<rect width="203" height="80" fill="white"/>
</clipPath>
</defs>
</svg>
